solid OBJECT
  facet normal -0 -0 -1
    outer loop
      vertex 69 17 29
      vertex 74 17 29
      vertex 74 -18 29
    endloop
  endfacet
  facet normal 0 0 -1
    outer loop
      vertex 69 17 29
      vertex 74 -18 29
      vertex 69 -18 29
    endloop
  endfacet
  facet normal 1 0 0
    outer loop
      vertex 74 17 29
      vertex 74 17 35
      vertex 74 -18 35
    endloop
  endfacet
  facet normal 1 0 -0
    outer loop
      vertex 74 17 29
      vertex 74 -18 35
      vertex 74 -18 29
    endloop
  endfacet
  facet normal -0 0 1
    outer loop
      vertex 74 17 35
      vertex 69 17 35
      vertex 69 -18 35
    endloop
  endfacet
  facet normal 0 0 1
    outer loop
      vertex 74 17 35
      vertex 69 -18 35
      vertex 74 -18 35
    endloop
  endfacet
  facet normal -1 -0 0
    outer loop
      vertex 69 17 35
      vertex 69 17 29
      vertex 69 -18 29
    endloop
  endfacet
  facet normal -1 0 -0
    outer loop
      vertex 69 17 35
      vertex 69 -18 29
      vertex 69 -18 35
    endloop
  endfacet
  facet normal -0 1 -0
    outer loop
      vertex 74 17 29
      vertex 69 17 29
      vertex 69 17 35
    endloop
  endfacet
  facet normal 0 1 0
    outer loop
      vertex 69 17 35
      vertex 74 17 35
      vertex 74 17 29
    endloop
  endfacet
  facet normal 0 -1 0
    outer loop
      vertex 74 -18 29
      vertex 69 -18 35
      vertex 69 -18 29
    endloop
  endfacet
  facet normal -0 -1 -0
    outer loop
      vertex 69 -18 35
      vertex 74 -18 29
      vertex 74 -18 35
    endloop
  endfacet
endsolid OBJECT
