solid OBJECT
  facet normal 0.063360754280901654 -0.99799068874261299 0
    outer loop
      vertex 6.9724340438842773 -1.2435184717178345 70.916366577148438
      vertex 8.8017244338989258 -1.1273798942565918 70.916366577148438
      vertex 8.8017244338989258 -1.1273798942565918 88.900001525878906
    endloop
  endfacet
  facet normal 0.063360754280901654 -0.99799068874261299 0
    outer loop
      vertex 6.9724340438842773 -1.2435184717178345 70.916366577148438
      vertex 8.8017244338989258 -1.1273798942565918 88.900001525878906
      vertex 6.9724340438842773 -1.2435184717178345 88.900001525878906
    endloop
  endfacet
  facet normal 0.22905864477339544 -0.97341262435545572 0
    outer loop
      vertex 8.8017244338989258 -1.1273798942565918 70.916366577148438
      vertex 10.069755554199219 -0.82899308204650879 70.916366577148438
      vertex 10.069755554199219 -0.82899308204650879 88.900001525878906
    endloop
  endfacet
  facet normal 0.22905864477339544 -0.97341262435545572 -3.3772034625632043e-18
    outer loop
      vertex 8.8017244338989258 -1.1273798942565918 70.916366577148438
      vertex 10.069755554199219 -0.82899308204650879 88.900001525878906
      vertex 8.8017244338989258 -1.1273798942565918 88.900001525878906
    endloop
  endfacet
  facet normal 0.48166164166987807 -0.8763572690084096 0
    outer loop
      vertex 10.069755554199219 -0.82899308204650879 70.916366577148438
      vertex 10.807707786560059 -0.42340132594108582 70.916366577148438
      vertex 10.807707786560059 -0.42340132594108582 88.900001525878906
    endloop
  endfacet
  facet normal 0.48166164166987802 -0.8763572690084096 0
    outer loop
      vertex 10.069755554199219 -0.82899308204650879 70.916366577148438
      vertex 10.807707786560059 -0.42340132594108582 88.900001525878906
      vertex 10.069755554199219 -0.82899308204650879 88.900001525878906
    endloop
  endfacet
  facet normal 0.87765928860399078 -0.47928506457758202 0
    outer loop
      vertex 10.807707786560059 -0.42340132594108582 70.916366577148438
      vertex 11.046762466430664 0.014351852238178253 70.916366577148438
      vertex 11.046762466430664 0.014351852238178253 88.900001525878906
    endloop
  endfacet
  facet normal 0.87765928860399078 -0.47928506457758202 0
    outer loop
      vertex 10.807707786560059 -0.42340132594108582 70.916366577148438
      vertex 11.046762466430664 0.014351852238178253 88.900001525878906
      vertex 10.807707786560059 -0.42340132594108582 88.900001525878906
    endloop
  endfacet
  facet normal 0.87765929546684107 0.47928505201043781 -0
    outer loop
      vertex 11.046762466430664 0.014351852238178253 70.916366577148438
      vertex 10.807707786560059 0.45210504531860352 70.916366577148438
      vertex 10.807707786560059 0.45210504531860352 88.900001525878906
    endloop
  endfacet
  facet normal 0.87765929546684107 0.47928505201043781 0
    outer loop
      vertex 11.046762466430664 0.014351852238178253 70.916366577148438
      vertex 10.807707786560059 0.45210504531860352 88.900001525878906
      vertex 11.046762466430664 0.014351852238178253 88.900001525878906
    endloop
  endfacet
  facet normal 0.48166161448887695 0.87635728394757395 -0
    outer loop
      vertex 10.807707786560059 0.45210504531860352 70.916366577148438
      vertex 10.069755554199219 0.8576967716217041 70.916366577148438
      vertex 10.069755554199219 0.8576967716217041 88.900001525878906
    endloop
  endfacet
  facet normal 0.48166161448887695 0.87635728394757395 0
    outer loop
      vertex 10.807707786560059 0.45210504531860352 70.916366577148438
      vertex 10.069755554199219 0.8576967716217041 88.900001525878906
      vertex 10.807707786560059 0.45210504531860352 88.900001525878906
    endloop
  endfacet
  facet normal 0.22905864477339544 0.97341262435545572 -0
    outer loop
      vertex 10.069755554199219 0.8576967716217041 70.916366577148438
      vertex 8.8017244338989258 1.1560835838317871 70.916366577148438
      vertex 8.8017244338989258 1.1560835838317871 88.900001525878906
    endloop
  endfacet
  facet normal 0.22905864477339544 0.97341262435545572 3.3772034625632043e-18
    outer loop
      vertex 10.069755554199219 0.8576967716217041 70.916366577148438
      vertex 8.8017244338989258 1.1560835838317871 88.900001525878906
      vertex 10.069755554199219 0.8576967716217041 88.900001525878906
    endloop
  endfacet
  facet normal 0.063360819055825662 0.99799068463015961 -0
    outer loop
      vertex 8.8017244338989258 1.1560835838317871 70.916366577148438
      vertex 6.9724340438842773 1.2722222805023193 70.916366577148438
      vertex 6.9724340438842773 1.2722222805023193 88.900001525878906
    endloop
  endfacet
  facet normal 0.063360819055825662 0.99799068463015961 0
    outer loop
      vertex 8.8017244338989258 1.1560835838317871 70.916366577148438
      vertex 6.9724340438842773 1.2722222805023193 88.900001525878906
      vertex 8.8017244338989258 1.1560835838317871 88.900001525878906
    endloop
  endfacet
  facet normal -0.025875875887957853 0.99966516346576328 -0
    outer loop
      vertex 6.9724340438842773 1.2722222805023193 70.916366577148438
      vertex 4.5909786224365234 1.2105793952941895 70.916366577148438
      vertex 4.5909786224365234 1.2105793952941895 88.900001525878906
    endloop
  endfacet
  facet normal -0.025875875887957853 0.99966516346576328 0
    outer loop
      vertex 6.9724340438842773 1.2722222805023193 70.916366577148438
      vertex 4.5909786224365234 1.2105793952941895 88.900001525878906
      vertex 6.9724340438842773 1.2722222805023193 88.900001525878906
    endloop
  endfacet
  facet normal -0.064362373956682831 0.99792659290083041 0
    outer loop
      vertex 4.5909786224365234 1.2105793952941895 70.916366577148438
      vertex 1.889917254447937 1.0363714694976807 70.916366577148438
      vertex 1.889917254447937 1.0363714694976807 88.900001525878906
    endloop
  endfacet
  facet normal -0.064362373956682831 0.99792659290083041 0
    outer loop
      vertex 4.5909786224365234 1.2105793952941895 70.916366577148438
      vertex 1.889917254447937 1.0363714694976807 88.900001525878906
      vertex 4.5909786224365234 1.2105793952941895 88.900001525878906
    endloop
  endfacet
  facet normal -0.10547960591727036 0.99442146634892048 -0
    outer loop
      vertex 1.889917254447937 1.0363714694976807 70.916366577148438
      vertex 0.33914542198181152 0.87187904119491577 70.916366577148438
      vertex 0.33914542198181152 0.87187904119491577 88.900001525878906
    endloop
  endfacet
  facet normal -0.10547960591727037 0.99442146634892059 0
    outer loop
      vertex 1.889917254447937 1.0363714694976807 70.916366577148438
      vertex 0.33914542198181152 0.87187904119491577 88.900001525878906
      vertex 1.889917254447937 1.0363714694976807 88.900001525878906
    endloop
  endfacet
  facet normal -0.13473389298387367 0.99088181842307022 -0
    outer loop
      vertex 0.33914542198181152 0.87187904119491577 70.916366577148438
      vertex -1.3879944086074829 0.63703340291976929 70.916366577148438
      vertex -1.3879944086074829 0.63703340291976929 88.900001525878906
    endloop
  endfacet
  facet normal -0.1347338929838737 0.99088181842307022 0
    outer loop
      vertex 0.33914542198181152 0.87187904119491577 70.916366577148438
      vertex -1.3879944086074829 0.63703340291976929 88.900001525878906
      vertex 0.33914542198181152 0.87187904119491577 88.900001525878906
    endloop
  endfacet
  facet normal -0.162741715716123 0.98666870527334172 0
    outer loop
      vertex -1.3879944086074829 0.63703340291976929 70.916366577148438
      vertex -3.323657751083374 0.31776395440101624 70.916366577148438
      vertex -3.323657751083374 0.31776395440101624 88.900001525878906
    endloop
  endfacet
  facet normal -0.162741715716123 0.98666870527334172 0
    outer loop
      vertex -1.3879944086074829 0.63703340291976929 70.916366577148438
      vertex -3.323657751083374 0.31776395440101624 88.900001525878906
      vertex -1.3879944086074829 0.63703340291976929 88.900001525878906
    endloop
  endfacet
  facet normal -0.18851518560546224 0.98207027487656817 -0
    outer loop
      vertex -3.323657751083374 0.31776395440101624 70.916366577148438
      vertex -5.5 -0.10000000149011612 70.916366577148438
      vertex -5.5 -0.10000000149011612 88.900001525878906
    endloop
  endfacet
  facet normal -0.18851518560546224 0.98207027487656817 3.4072407217747575e-18
    outer loop
      vertex -3.323657751083374 0.31776395440101624 70.916366577148438
      vertex -5.5 -0.10000000149011612 88.900001525878906
      vertex -3.323657751083374 0.31776395440101624 88.900001525878906
    endloop
  endfacet
  facet normal -0.15210043978094454 -0.98836504198521857 0
    outer loop
      vertex -5.5 -0.10000000149011612 70.916366577148438
      vertex -2.6532824039459229 -0.53808408975601196 70.916366577148438
      vertex -2.6532824039459229 -0.53808408975601196 88.900001525878906
    endloop
  endfacet
  facet normal -0.15210043978094454 -0.98836504198521857 -0
    outer loop
      vertex -5.5 -0.10000000149011612 70.916366577148438
      vertex -2.6532824039459229 -0.53808408975601196 88.900001525878906
      vertex -5.5 -0.10000000149011612 88.900001525878906
    endloop
  endfacet
  facet normal -0.123372580726758 -0.99236042158321669 0
    outer loop
      vertex -2.6532824039459229 -0.53808408975601196 70.916366577148438
      vertex -0.21538347005844116 -0.84116941690444946 70.916366577148438
      vertex -0.21538347005844116 -0.84116941690444946 88.900001525878906
    endloop
  endfacet
  facet normal -0.123372580726758 -0.99236042158321669 0
    outer loop
      vertex -2.6532824039459229 -0.53808408975601196 70.916366577148438
      vertex -0.21538347005844116 -0.84116941690444946 88.900001525878906
      vertex -2.6532824039459229 -0.53808408975601196 88.900001525878906
    endloop
  endfacet
  facet normal -0.092269099454924175 -0.99573410772443527 0
    outer loop
      vertex -0.21538347005844116 -0.84116941690444946 70.916366577148438
      vertex 1.889917254447937 -1.0362558364868164 70.916366577148438
      vertex 1.889917254447937 -1.0362558364868164 88.900001525878906
    endloop
  endfacet
  facet normal -0.092269099454924175 -0.99573410772443527 0
    outer loop
      vertex -0.21538347005844116 -0.84116941690444946 70.916366577148438
      vertex 1.889917254447937 -1.0362558364868164 88.900001525878906
      vertex -0.21538347005844116 -0.84116941690444946 88.900001525878906
    endloop
  endfacet
  facet normal -0.055151037656911865 -0.99847802331616975 0
    outer loop
      vertex 1.889917254447937 -1.0362558364868164 70.916366577148438
      vertex 4.5909786224365234 -1.1854492425918579 70.916366577148438
      vertex 4.5909786224365234 -1.1854492425918579 88.900001525878906
    endloop
  endfacet
  facet normal -0.055151037656911865 -0.99847802331616975 -0
    outer loop
      vertex 1.889917254447937 -1.0362558364868164 70.916366577148438
      vertex 4.5909786224365234 -1.1854492425918579 88.900001525878906
      vertex 1.889917254447937 -1.0362558364868164 88.900001525878906
    endloop
  endfacet
  facet normal -0.024376678655917455 -0.99970284461819259 0
    outer loop
      vertex 4.5909786224365234 -1.1854492425918579 70.916366577148438
      vertex 6.9724340438842773 -1.2435184717178345 70.916366577148438
      vertex 6.9724340438842773 -1.2435184717178345 88.900001525878906
    endloop
  endfacet
  facet normal -0.024376678655917455 -0.99970284461819248 -0
    outer loop
      vertex 4.5909786224365234 -1.1854492425918579 70.916366577148438
      vertex 6.9724340438842773 -1.2435184717178345 88.900001525878906
      vertex 4.5909786224365234 -1.1854492425918579 88.900001525878906
    endloop
  endfacet
  facet normal -0 -0 -1
    outer loop
      vertex -0.21538347005844116 -0.84116941690444946 70.916366577148438
      vertex -2.6532824039459229 -0.53808408975601196 70.916366577148438
      vertex -1.3879944086074829 0.63703340291976929 70.916366577148438
    endloop
  endfacet
  facet normal 0 0 -1
    outer loop
      vertex 0.33914542198181152 0.87187904119491577 70.916366577148438
      vertex 1.889917254447937 -1.0362558364868164 70.916366577148438
      vertex -0.21538347005844116 -0.84116941690444946 70.916366577148438
    endloop
  endfacet
  facet normal 0 -0 -1
    outer loop
      vertex 1.889917254447937 -1.0362558364868164 70.916366577148438
      vertex 1.889917254447937 1.0363714694976807 70.916366577148438
      vertex 4.5909786224365234 -1.1854492425918579 70.916366577148438
    endloop
  endfacet
  facet normal 0 0 -1
    outer loop
      vertex -3.323657751083374 0.31776395440101624 70.916366577148438
      vertex -2.6532824039459229 -0.53808408975601196 70.916366577148438
      vertex -5.5 -0.10000000149011612 70.916366577148438
    endloop
  endfacet
  facet normal 0 -0 -1
    outer loop
      vertex -1.3879944086074829 0.63703340291976929 70.916366577148438
      vertex 0.33914542198181152 0.87187904119491577 70.916366577148438
      vertex -0.21538347005844116 -0.84116941690444946 70.916366577148438
    endloop
  endfacet
  facet normal 0 -0 -1
    outer loop
      vertex -2.6532824039459229 -0.53808408975601196 70.916366577148438
      vertex -3.323657751083374 0.31776395440101624 70.916366577148438
      vertex -1.3879944086074829 0.63703340291976929 70.916366577148438
    endloop
  endfacet
  facet normal 0 -0 -1
    outer loop
      vertex 1.889917254447937 1.0363714694976807 70.916366577148438
      vertex 1.889917254447937 -1.0362558364868164 70.916366577148438
      vertex 0.33914542198181152 0.87187904119491577 70.916366577148438
    endloop
  endfacet
  facet normal 0 0 -1
    outer loop
      vertex 1.889917254447937 1.0363714694976807 70.916366577148438
      vertex 4.5909786224365234 1.2105793952941895 70.916366577148438
      vertex 4.5909786224365234 -1.1854492425918579 70.916366577148438
    endloop
  endfacet
  facet normal 0 0 -1
    outer loop
      vertex 8.8017244338989258 -1.1273798942565918 70.916366577148438
      vertex 6.9724340438842773 -1.2435184717178345 70.916366577148438
      vertex 6.9724340438842773 1.2722222805023193 70.916366577148438
    endloop
  endfacet
  facet normal 0 0 -1
    outer loop
      vertex 10.807707786560059 -0.42340132594108582 70.916366577148438
      vertex 10.069755554199219 -0.82899308204650879 70.916366577148438
      vertex 10.069755554199219 0.8576967716217041 70.916366577148438
    endloop
  endfacet
  facet normal 0 0 -1
    outer loop
      vertex 10.069755554199219 0.8576967716217041 70.916366577148438
      vertex 10.069755554199219 -0.82899308204650879 70.916366577148438
      vertex 8.8017244338989258 -1.1273798942565918 70.916366577148438
    endloop
  endfacet
  facet normal 0 0 -1
    outer loop
      vertex 10.807707786560059 0.45210504531860352 70.916366577148438
      vertex 11.046762466430664 0.014351852238178253 70.916366577148438
      vertex 10.807707786560059 -0.42340132594108582 70.916366577148438
    endloop
  endfacet
  facet normal 0 -0 -1
    outer loop
      vertex 6.9724340438842773 1.2722222805023193 70.916366577148438
      vertex 6.9724340438842773 -1.2435184717178345 70.916366577148438
      vertex 4.5909786224365234 1.2105793952941895 70.916366577148438
    endloop
  endfacet
  facet normal 0 0 -1
    outer loop
      vertex 8.8017244338989258 1.1560835838317871 70.916366577148438
      vertex 10.069755554199219 0.8576967716217041 70.916366577148438
      vertex 8.8017244338989258 -1.1273798942565918 70.916366577148438
    endloop
  endfacet
  facet normal -0 0 -1
    outer loop
      vertex 8.8017244338989258 -1.1273798942565918 70.916366577148438
      vertex 6.9724340438842773 1.2722222805023193 70.916366577148438
      vertex 8.8017244338989258 1.1560835838317871 70.916366577148438
    endloop
  endfacet
  facet normal 0 0 -1
    outer loop
      vertex 10.807707786560059 0.45210504531860352 70.916366577148438
      vertex 10.807707786560059 -0.42340132594108582 70.916366577148438
      vertex 10.069755554199219 0.8576967716217041 70.916366577148438
    endloop
  endfacet
  facet normal -0 -0 -1
    outer loop
      vertex 4.5909786224365234 -1.1854492425918579 70.916366577148438
      vertex 4.5909786224365234 1.2105793952941895 70.916366577148438
      vertex 6.9724340438842773 -1.2435184717178345 70.916366577148438
    endloop
  endfacet
  facet normal -0 -0 1
    outer loop
      vertex -0.21538347005844116 -0.84116941690444946 88.900001525878906
      vertex -1.3879944086074829 0.63703340291976929 88.900001525878906
      vertex -2.6532824039459229 -0.53808408975601196 88.900001525878906
    endloop
  endfacet
  facet normal -0 -0 1
    outer loop
      vertex 0.33914542198181152 0.87187904119491577 88.900001525878906
      vertex -0.21538347005844116 -0.84116941690444946 88.900001525878906
      vertex 1.889917254447937 -1.0362558364868164 88.900001525878906
    endloop
  endfacet
  facet normal 0 0 1
    outer loop
      vertex 1.889917254447937 -1.0362558364868164 88.900001525878906
      vertex 4.5909786224365234 -1.1854492425918579 88.900001525878906
      vertex 1.889917254447937 1.0363714694976807 88.900001525878906
    endloop
  endfacet
  facet normal -0 -0 1
    outer loop
      vertex -3.323657751083374 0.31776395440101624 88.900001525878906
      vertex -5.5 -0.10000000149011612 88.900001525878906
      vertex -2.6532824039459229 -0.53808408975601196 88.900001525878906
    endloop
  endfacet
  facet normal 0 -0 1
    outer loop
      vertex -1.3879944086074829 0.63703340291976929 88.900001525878906
      vertex -0.21538347005844116 -0.84116941690444946 88.900001525878906
      vertex 0.33914542198181152 0.87187904119491577 88.900001525878906
    endloop
  endfacet
  facet normal 0 0 1
    outer loop
      vertex -2.6532824039459229 -0.53808408975601196 88.900001525878906
      vertex -1.3879944086074829 0.63703340291976929 88.900001525878906
      vertex -3.323657751083374 0.31776395440101624 88.900001525878906
    endloop
  endfacet
  facet normal 0 -0 1
    outer loop
      vertex 1.889917254447937 1.0363714694976807 88.900001525878906
      vertex 0.33914542198181152 0.87187904119491577 88.900001525878906
      vertex 1.889917254447937 -1.0362558364868164 88.900001525878906
    endloop
  endfacet
  facet normal 0 0 1
    outer loop
      vertex 1.889917254447937 1.0363714694976807 88.900001525878906
      vertex 4.5909786224365234 -1.1854492425918579 88.900001525878906
      vertex 4.5909786224365234 1.2105793952941895 88.900001525878906
    endloop
  endfacet
  facet normal -0 0 1
    outer loop
      vertex 8.8017244338989258 -1.1273798942565918 88.900001525878906
      vertex 6.9724340438842773 1.2722222805023193 88.900001525878906
      vertex 6.9724340438842773 -1.2435184717178345 88.900001525878906
    endloop
  endfacet
  facet normal -0 0 1
    outer loop
      vertex 10.807707786560059 -0.42340132594108582 88.900001525878906
      vertex 10.069755554199219 0.8576967716217041 88.900001525878906
      vertex 10.069755554199219 -0.82899308204650879 88.900001525878906
    endloop
  endfacet
  facet normal 0 0 1
    outer loop
      vertex 10.069755554199219 0.8576967716217041 88.900001525878906
      vertex 8.8017244338989258 -1.1273798942565918 88.900001525878906
      vertex 10.069755554199219 -0.82899308204650879 88.900001525878906
    endloop
  endfacet
  facet normal 0 0 1
    outer loop
      vertex 10.807707786560059 0.45210504531860352 88.900001525878906
      vertex 10.807707786560059 -0.42340132594108582 88.900001525878906
      vertex 11.046762466430664 0.014351852238178253 88.900001525878906
    endloop
  endfacet
  facet normal 0 -0 1
    outer loop
      vertex 6.9724340438842773 1.2722222805023193 88.900001525878906
      vertex 4.5909786224365234 1.2105793952941895 88.900001525878906
      vertex 6.9724340438842773 -1.2435184717178345 88.900001525878906
    endloop
  endfacet
  facet normal 0 0 1
    outer loop
      vertex 8.8017244338989258 1.1560835838317871 88.900001525878906
      vertex 8.8017244338989258 -1.1273798942565918 88.900001525878906
      vertex 10.069755554199219 0.8576967716217041 88.900001525878906
    endloop
  endfacet
  facet normal -0 0 1
    outer loop
      vertex 8.8017244338989258 -1.1273798942565918 88.900001525878906
      vertex 8.8017244338989258 1.1560835838317871 88.900001525878906
      vertex 6.9724340438842773 1.2722222805023193 88.900001525878906
    endloop
  endfacet
  facet normal -0 0 1
    outer loop
      vertex 10.807707786560059 0.45210504531860352 88.900001525878906
      vertex 10.069755554199219 0.8576967716217041 88.900001525878906
      vertex 10.807707786560059 -0.42340132594108582 88.900001525878906
    endloop
  endfacet
  facet normal 0 0 1
    outer loop
      vertex 4.5909786224365234 -1.1854492425918579 88.900001525878906
      vertex 6.9724340438842773 -1.2435184717178345 88.900001525878906
      vertex 4.5909786224365234 1.2105793952941895 88.900001525878906
    endloop
  endfacet
endsolid OBJECT
