solid OBJECT
  facet normal 0.078807116938332963 -0.9968898827452648 0
    outer loop
      vertex 7.4693465232849121 -1.6833332777023315 52.916362762451172
      vertex 9.5035171508789062 -1.5225260257720947 52.916362762451172
      vertex 9.5035171508789062 -1.5225260257720947 70.900001525878906
    endloop
  endfacet
  facet normal 0.078807116938332963 -0.9968898827452648 -1.7293282825619774e-18
    outer loop
      vertex 7.4693465232849121 -1.6833332777023315 52.916362762451172
      vertex 9.5035171508789062 -1.5225260257720947 70.900001525878906
      vertex 7.4693465232849121 -1.6833332777023315 70.900001525878906
    endloop
  endfacet
  facet normal 0.28118293738157801 -0.95965418548843295 0
    outer loop
      vertex 9.5035171508789062 -1.5225260257720947 52.916362762451172
      vertex 10.913567543029785 -1.109375 52.916362762451172
      vertex 10.913567543029785 -1.109375 70.900001525878906
    endloop
  endfacet
  facet normal 0.28118293738157801 -0.95965418548843295 0
    outer loop
      vertex 9.5035171508789062 -1.5225260257720947 52.916362762451172
      vertex 10.913567543029785 -1.109375 70.900001525878906
      vertex 9.5035171508789062 -1.5225260257720947 70.900001525878906
    endloop
  endfacet
  facet normal 0.5647682084622927 -0.825249580860416 0
    outer loop
      vertex 10.913567543029785 -1.109375 52.916362762451172
      vertex 11.734170913696289 -0.54778647422790527 52.916362762451172
      vertex 11.734170913696289 -0.54778647422790527 70.900001525878906
    endloop
  endfacet
  facet normal 0.5647682084622927 -0.825249580860416 2.863159642917168e-18
    outer loop
      vertex 10.913567543029785 -1.109375 52.916362762451172
      vertex 11.734170913696289 -0.54778647422790527 70.900001525878906
      vertex 10.913567543029785 -1.109375 70.900001525878906
    endloop
  endfacet
  facet normal 0.91579539734838022 -0.40164510478222243 -0
    outer loop
      vertex 11.734170913696289 -0.54778647422790527 52.916362762451172
      vertex 12 0.05833333358168602 52.916362762451172
      vertex 12 0.05833333358168602 70.900001525878906
    endloop
  endfacet
  facet normal 0.91579539734838022 -0.40164510478222243 0
    outer loop
      vertex 11.734170913696289 -0.54778647422790527 52.916362762451172
      vertex 12 0.05833333358168602 70.900001525878906
      vertex 11.734170913696289 -0.54778647422790527 70.900001525878906
    endloop
  endfacet
  facet normal 0.9157953991643768 0.40164510064154851 -0
    outer loop
      vertex 12 0.05833333358168602 52.916362762451172
      vertex 11.734170913696289 0.66445314884185791 52.916362762451172
      vertex 11.734170913696289 0.66445314884185791 70.900001525878906
    endloop
  endfacet
  facet normal 0.9157953991643768 0.40164510064154851 0
    outer loop
      vertex 12 0.05833333358168602 52.916362762451172
      vertex 11.734170913696289 0.66445314884185791 70.900001525878906
      vertex 12 0.05833333358168602 70.900001525878906
    endloop
  endfacet
  facet normal 0.5647682084622927 0.825249580860416 -0
    outer loop
      vertex 11.734170913696289 0.66445314884185791 52.916362762451172
      vertex 10.913567543029785 1.2260416746139526 52.916362762451172
      vertex 10.913567543029785 1.2260416746139526 70.900001525878906
    endloop
  endfacet
  facet normal 0.5647682084622927 0.825249580860416 -2.863159642917168e-18
    outer loop
      vertex 11.734170913696289 0.66445314884185791 52.916362762451172
      vertex 10.913567543029785 1.2260416746139526 70.900001525878906
      vertex 11.734170913696289 0.66445314884185791 70.900001525878906
    endloop
  endfacet
  facet normal 0.28118293738157801 0.95965418548843295 -0
    outer loop
      vertex 10.913567543029785 1.2260416746139526 52.916362762451172
      vertex 9.5035171508789062 1.6391927003860474 52.916362762451172
      vertex 9.5035171508789062 1.6391927003860474 70.900001525878906
    endloop
  endfacet
  facet normal 0.28118293738157801 0.95965418548843295 0
    outer loop
      vertex 10.913567543029785 1.2260416746139526 52.916362762451172
      vertex 9.5035171508789062 1.6391927003860474 70.900001525878906
      vertex 10.913567543029785 1.2260416746139526 70.900001525878906
    endloop
  endfacet
  facet normal 0.078807116938332963 0.9968898827452648 -0
    outer loop
      vertex 9.5035171508789062 1.6391927003860474 52.916362762451172
      vertex 7.4693465232849121 1.7999999523162842 52.916362762451172
      vertex 7.4693465232849121 1.7999999523162842 70.900001525878906
    endloop
  endfacet
  facet normal 0.078807116938332963 0.9968898827452648 1.7293282825619774e-18
    outer loop
      vertex 9.5035171508789062 1.6391927003860474 52.916362762451172
      vertex 7.4693465232849121 1.7999999523162842 70.900001525878906
      vertex 9.5035171508789062 1.6391927003860474 70.900001525878906
    endloop
  endfacet
  facet normal -0.032213532206437953 0.99948100949582075 -0
    outer loop
      vertex 7.4693465232849121 1.7999999523162842 52.916362762451172
      vertex 4.8211684226989746 1.7146484851837158 52.916362762451172
      vertex 4.8211684226989746 1.7146484851837158 70.900001525878906
    endloop
  endfacet
  facet normal -0.032213532206437953 0.99948100949582075 8.6691158548269915e-19
    outer loop
      vertex 7.4693465232849121 1.7999999523162842 52.916362762451172
      vertex 4.8211684226989746 1.7146484851837158 70.900001525878906
      vertex 7.4693465232849121 1.7999999523162842 70.900001525878906
    endloop
  endfacet
  facet normal -0.08005007945150644 0.99679084304572529 -0
    outer loop
      vertex 4.8211684226989746 1.7146484851837158 52.916362762451172
      vertex 1.8175879716873169 1.4734375476837158 52.916362762451172
      vertex 1.8175879716873169 1.4734375476837158 70.900001525878906
    endloop
  endfacet
  facet normal -0.08005007945150644 0.99679084304572529 1.7291564760701325e-18
    outer loop
      vertex 4.8211684226989746 1.7146484851837158 52.916362762451172
      vertex 1.8175879716873169 1.4734375476837158 70.900001525878906
      vertex 4.8211684226989746 1.7146484851837158 70.900001525878906
    endloop
  endfacet
  facet normal -0.14997807524659718 0.98868932276288191 -0
    outer loop
      vertex 1.8175879716873169 1.4734375476837158 52.916362762451172
      vertex -1.8274497985839844 0.92050778865814209 52.916362762451172
      vertex -1.8274497985839844 0.92050778865814209 70.900001525878906
    endloop
  endfacet
  facet normal -0.14997807524659718 0.98868932276288191 0
    outer loop
      vertex 1.8175879716873169 1.4734375476837158 52.916362762451172
      vertex -1.8274497985839844 0.92050778865814209 70.900001525878906
      vertex 1.8175879716873169 1.4734375476837158 70.900001525878906
    endloop
  endfacet
  facet normal -0.20117807493538484 0.97955468564306947 -0
    outer loop
      vertex -1.8274497985839844 0.92050778865814209 52.916362762451172
      vertex -3.9799072742462158 0.47844237089157104 52.916362762451172
      vertex -3.9799072742462158 0.47844237089157104 70.900001525878906
    endloop
  endfacet
  facet normal -0.20117807493538484 0.97955468564306947 0
    outer loop
      vertex -1.8274497985839844 0.92050778865814209 52.916362762451172
      vertex -3.9799072742462158 0.47844237089157104 70.900001525878906
      vertex -1.8274497985839844 0.92050778865814209 70.900001525878906
    endloop
  endfacet
  facet normal -0.23246848993431832 0.97260392821932307 0
    outer loop
      vertex -3.9799072742462158 0.47844237089157104 52.916362762451172
      vertex -6.4000000953674316 -0.10000000149011612 52.916362762451172
      vertex -6.4000000953674316 -0.10000000149011612 70.900001525878906
    endloop
  endfacet
  facet normal -0.23246848993431832 0.97260392821932307 0
    outer loop
      vertex -3.9799072742462158 0.47844237089157104 52.916362762451172
      vertex -6.4000000953674316 -0.10000000149011612 70.900001525878906
      vertex -3.9799072742462158 0.47844237089157104 70.900001525878906
    endloop
  endfacet
  facet normal -0.19217610711695604 -0.98136045561932661 0
    outer loop
      vertex -6.4000000953674316 -0.10000000149011612 52.916362762451172
      vertex -3.9799072742462158 -0.57391762733459473 52.916362762451172
      vertex -3.9799072742462158 -0.57391762733459473 70.900001525878906
    endloop
  endfacet
  facet normal -0.19217610711695604 -0.98136045561932661 0
    outer loop
      vertex -6.4000000953674316 -0.10000000149011612 52.916362762451172
      vertex -3.9799072742462158 -0.57391762733459473 70.900001525878906
      vertex -6.4000000953674316 -0.10000000149011612 70.900001525878906
    endloop
  endfacet
  facet normal -0.16652662433175824 -0.98603695842938333 0
    outer loop
      vertex -3.9799072742462158 -0.57391762733459473 52.916362762451172
      vertex -1.8274497985839844 -0.93743491172790527 52.916362762451172
      vertex -1.8274497985839844 -0.93743491172790527 70.900001525878906
    endloop
  endfacet
  facet normal -0.16652662433175824 -0.98603695842938333 0
    outer loop
      vertex -3.9799072742462158 -0.57391762733459473 52.916362762451172
      vertex -1.8274497985839844 -0.93743491172790527 70.900001525878906
      vertex -3.9799072742462158 -0.57391762733459473 70.900001525878906
    endloop
  endfacet
  facet normal -0.12491631899396416 -0.99216728088009343 0
    outer loop
      vertex -1.8274497985839844 -0.93743491172790527 52.916362762451172
      vertex 1.8175879716873169 -1.3963541984558105 52.916362762451172
      vertex 1.8175879716873169 -1.3963541984558105 70.900001525878906
    endloop
  endfacet
  facet normal -0.12491631899396416 -0.99216728088009343 -0
    outer loop
      vertex -1.8274497985839844 -0.93743491172790527 52.916362762451172
      vertex 1.8175879716873169 -1.3963541984558105 70.900001525878906
      vertex -1.8274497985839844 -0.93743491172790527 70.900001525878906
    endloop
  endfacet
  facet normal -0.068614332588745552 -0.99764325956897093 0
    outer loop
      vertex 1.8175879716873169 -1.3963541984558105 52.916362762451172
      vertex 4.8211684226989746 -1.6029297113418579 52.916362762451172
      vertex 4.8211684226989746 -1.6029297113418579 70.900001525878906
    endloop
  endfacet
  facet normal -0.068614332588745552 -0.99764325956897093 0
    outer loop
      vertex 1.8175879716873169 -1.3963541984558105 52.916362762451172
      vertex 4.8211684226989746 -1.6029297113418579 70.900001525878906
      vertex 1.8175879716873169 -1.3963541984558105 70.900001525878906
    endloop
  endfacet
  facet normal -0.030347857749489723 -0.99953939768776323 0
    outer loop
      vertex 4.8211684226989746 -1.6029297113418579 52.916362762451172
      vertex 7.4693465232849121 -1.6833332777023315 52.916362762451172
      vertex 7.4693465232849121 -1.6833332777023315 70.900001525878906
    endloop
  endfacet
  facet normal -0.030347857749489723 -0.99953939768776323 0
    outer loop
      vertex 4.8211684226989746 -1.6029297113418579 52.916362762451172
      vertex 7.4693465232849121 -1.6833332777023315 70.900001525878906
      vertex 4.8211684226989746 -1.6029297113418579 70.900001525878906
    endloop
  endfacet
  facet normal -0 -0 -1
    outer loop
      vertex -1.8274497985839844 -0.93743491172790527 52.916362762451172
      vertex -3.9799072742462158 -0.57391762733459473 52.916362762451172
      vertex -3.9799072742462158 0.47844237089157104 52.916362762451172
    endloop
  endfacet
  facet normal 0 0 -1
    outer loop
      vertex -1.8274497985839844 0.92050778865814209 52.916362762451172
      vertex 1.8175879716873169 -1.3963541984558105 52.916362762451172
      vertex -1.8274497985839844 -0.93743491172790527 52.916362762451172
    endloop
  endfacet
  facet normal -0 -0 -1
    outer loop
      vertex 1.8175879716873169 -1.3963541984558105 52.916362762451172
      vertex 1.8175879716873169 1.4734375476837158 52.916362762451172
      vertex 4.8211684226989746 -1.6029297113418579 52.916362762451172
    endloop
  endfacet
  facet normal 0 0 -1
    outer loop
      vertex -3.9799072742462158 0.47844237089157104 52.916362762451172
      vertex -3.9799072742462158 -0.57391762733459473 52.916362762451172
      vertex -6.4000000953674316 -0.10000000149011612 52.916362762451172
    endloop
  endfacet
  facet normal 0 0 -1
    outer loop
      vertex -1.8274497985839844 0.92050778865814209 52.916362762451172
      vertex 1.8175879716873169 1.4734375476837158 52.916362762451172
      vertex 1.8175879716873169 -1.3963541984558105 52.916362762451172
    endloop
  endfacet
  facet normal -0 -0 -1
    outer loop
      vertex -1.8274497985839844 -0.93743491172790527 52.916362762451172
      vertex -3.9799072742462158 0.47844237089157104 52.916362762451172
      vertex -1.8274497985839844 0.92050778865814209 52.916362762451172
    endloop
  endfacet
  facet normal 0 -0 -1
    outer loop
      vertex 4.8211684226989746 1.7146484851837158 52.916362762451172
      vertex 4.8211684226989746 -1.6029297113418579 52.916362762451172
      vertex 1.8175879716873169 1.4734375476837158 52.916362762451172
    endloop
  endfacet
  facet normal 0 0 -1
    outer loop
      vertex 4.8211684226989746 1.7146484851837158 52.916362762451172
      vertex 7.4693465232849121 -1.6833332777023315 52.916362762451172
      vertex 4.8211684226989746 -1.6029297113418579 52.916362762451172
    endloop
  endfacet
  facet normal 0 0 -1
    outer loop
      vertex 9.5035171508789062 -1.5225260257720947 52.916362762451172
      vertex 7.4693465232849121 -1.6833332777023315 52.916362762451172
      vertex 7.4693465232849121 1.7999999523162842 52.916362762451172
    endloop
  endfacet
  facet normal 0 0 -1
    outer loop
      vertex 10.913567543029785 1.2260416746139526 52.916362762451172
      vertex 10.913567543029785 -1.109375 52.916362762451172
      vertex 9.5035171508789062 -1.5225260257720947 52.916362762451172
    endloop
  endfacet
  facet normal -0 0 -1
    outer loop
      vertex 10.913567543029785 -1.109375 52.916362762451172
      vertex 10.913567543029785 1.2260416746139526 52.916362762451172
      vertex 11.734170913696289 -0.54778647422790527 52.916362762451172
    endloop
  endfacet
  facet normal -0 0 -1
    outer loop
      vertex 9.5035171508789062 1.6391927003860474 52.916362762451172
      vertex 9.5035171508789062 -1.5225260257720947 52.916362762451172
      vertex 7.4693465232849121 1.7999999523162842 52.916362762451172
    endloop
  endfacet
  facet normal 0 0 -1
    outer loop
      vertex 10.913567543029785 1.2260416746139526 52.916362762451172
      vertex 11.734170913696289 0.66445314884185791 52.916362762451172
      vertex 11.734170913696289 -0.54778647422790527 52.916362762451172
    endloop
  endfacet
  facet normal -0 0 -1
    outer loop
      vertex 9.5035171508789062 -1.5225260257720947 52.916362762451172
      vertex 9.5035171508789062 1.6391927003860474 52.916362762451172
      vertex 10.913567543029785 1.2260416746139526 52.916362762451172
    endloop
  endfacet
  facet normal 0 0 -1
    outer loop
      vertex 12 0.05833333358168602 52.916362762451172
      vertex 11.734170913696289 -0.54778647422790527 52.916362762451172
      vertex 11.734170913696289 0.66445314884185791 52.916362762451172
    endloop
  endfacet
  facet normal -0 -0 -1
    outer loop
      vertex 4.8211684226989746 1.7146484851837158 52.916362762451172
      vertex 7.4693465232849121 1.7999999523162842 52.916362762451172
      vertex 7.4693465232849121 -1.6833332777023315 52.916362762451172
    endloop
  endfacet
  facet normal 0 -0 1
    outer loop
      vertex -1.8274497985839844 -0.93743491172790527 70.900001525878906
      vertex -3.9799072742462158 0.47844237089157104 70.900001525878906
      vertex -3.9799072742462158 -0.57391762733459473 70.900001525878906
    endloop
  endfacet
  facet normal -0 -0 1
    outer loop
      vertex -1.8274497985839844 0.92050778865814209 70.900001525878906
      vertex -1.8274497985839844 -0.93743491172790527 70.900001525878906
      vertex 1.8175879716873169 -1.3963541984558105 70.900001525878906
    endloop
  endfacet
  facet normal 0 0 1
    outer loop
      vertex 1.8175879716873169 -1.3963541984558105 70.900001525878906
      vertex 4.8211684226989746 -1.6029297113418579 70.900001525878906
      vertex 1.8175879716873169 1.4734375476837158 70.900001525878906
    endloop
  endfacet
  facet normal 0 -0 1
    outer loop
      vertex -3.9799072742462158 0.47844237089157104 70.900001525878906
      vertex -6.4000000953674316 -0.10000000149011612 70.900001525878906
      vertex -3.9799072742462158 -0.57391762733459473 70.900001525878906
    endloop
  endfacet
  facet normal 0 0 1
    outer loop
      vertex -1.8274497985839844 0.92050778865814209 70.900001525878906
      vertex 1.8175879716873169 -1.3963541984558105 70.900001525878906
      vertex 1.8175879716873169 1.4734375476837158 70.900001525878906
    endloop
  endfacet
  facet normal 0 0 1
    outer loop
      vertex -1.8274497985839844 -0.93743491172790527 70.900001525878906
      vertex -1.8274497985839844 0.92050778865814209 70.900001525878906
      vertex -3.9799072742462158 0.47844237089157104 70.900001525878906
    endloop
  endfacet
  facet normal 0 -0 1
    outer loop
      vertex 4.8211684226989746 1.7146484851837158 70.900001525878906
      vertex 1.8175879716873169 1.4734375476837158 70.900001525878906
      vertex 4.8211684226989746 -1.6029297113418579 70.900001525878906
    endloop
  endfacet
  facet normal 0 0 1
    outer loop
      vertex 4.8211684226989746 1.7146484851837158 70.900001525878906
      vertex 4.8211684226989746 -1.6029297113418579 70.900001525878906
      vertex 7.4693465232849121 -1.6833332777023315 70.900001525878906
    endloop
  endfacet
  facet normal -0 0 1
    outer loop
      vertex 9.5035171508789062 -1.5225260257720947 70.900001525878906
      vertex 7.4693465232849121 1.7999999523162842 70.900001525878906
      vertex 7.4693465232849121 -1.6833332777023315 70.900001525878906
    endloop
  endfacet
  facet normal 0 0 1
    outer loop
      vertex 10.913567543029785 1.2260416746139526 70.900001525878906
      vertex 9.5035171508789062 -1.5225260257720947 70.900001525878906
      vertex 10.913567543029785 -1.109375 70.900001525878906
    endloop
  endfacet
  facet normal -0 0 1
    outer loop
      vertex 10.913567543029785 -1.109375 70.900001525878906
      vertex 11.734170913696289 -0.54778647422790527 70.900001525878906
      vertex 10.913567543029785 1.2260416746139526 70.900001525878906
    endloop
  endfacet
  facet normal -0 0 1
    outer loop
      vertex 9.5035171508789062 1.6391927003860474 70.900001525878906
      vertex 7.4693465232849121 1.7999999523162842 70.900001525878906
      vertex 9.5035171508789062 -1.5225260257720947 70.900001525878906
    endloop
  endfacet
  facet normal 0 0 1
    outer loop
      vertex 10.913567543029785 1.2260416746139526 70.900001525878906
      vertex 11.734170913696289 -0.54778647422790527 70.900001525878906
      vertex 11.734170913696289 0.66445314884185791 70.900001525878906
    endloop
  endfacet
  facet normal -0 0 1
    outer loop
      vertex 9.5035171508789062 -1.5225260257720947 70.900001525878906
      vertex 10.913567543029785 1.2260416746139526 70.900001525878906
      vertex 9.5035171508789062 1.6391927003860474 70.900001525878906
    endloop
  endfacet
  facet normal -0 0 1
    outer loop
      vertex 12 0.05833333358168602 70.900001525878906
      vertex 11.734170913696289 0.66445314884185791 70.900001525878906
      vertex 11.734170913696289 -0.54778647422790527 70.900001525878906
    endloop
  endfacet
  facet normal 0 -0 1
    outer loop
      vertex 4.8211684226989746 1.7146484851837158 70.900001525878906
      vertex 7.4693465232849121 -1.6833332777023315 70.900001525878906
      vertex 7.4693465232849121 1.7999999523162842 70.900001525878906
    endloop
  endfacet
endsolid OBJECT
