solid OBJECT
  facet normal 0.091938435582556335 -0.99576469311912852 0
    outer loop
      vertex 7.5999999046325684 -2.0999999046325684 30.920000076293945
      vertex 9.8000001907348633 -1.8968750238418579 30.920000076293945
      vertex 9.8000001907348633 -1.8968750238418579 52.900001525878906
    endloop
  endfacet
  facet normal 0.091938435582556335 -0.99576469311912852 0
    outer loop
      vertex 7.5999999046325684 -2.0999999046325684 30.920000076293945
      vertex 9.8000001907348633 -1.8968750238418579 52.900001525878906
      vertex 7.5999999046325684 -2.0999999046325684 52.900001525878906
    endloop
  endfacet
  facet normal 0.3237791139100028 -0.94613269967571323 0
    outer loop
      vertex 9.8000001907348633 -1.8968750238418579 30.920000076293945
      vertex 11.324999809265137 -1.375 30.920000076293945
      vertex 11.324999809265137 -1.375 52.900001525878906
    endloop
  endfacet
  facet normal 0.3237791139100028 -0.94613269967571323 0
    outer loop
      vertex 9.8000001907348633 -1.8968750238418579 30.920000076293945
      vertex 11.324999809265137 -1.375 52.900001525878906
      vertex 9.8000001907348633 -1.8968750238418579 52.900001525878906
    endloop
  endfacet
  facet normal 0.62435965988511288 -0.78113700149727006 0
    outer loop
      vertex 11.324999809265137 -1.375 30.920000076293945
      vertex 12.212499618530273 -0.66562497615814209 30.920000076293945
      vertex 12.212499618530273 -0.66562497615814209 52.900001525878906
    endloop
  endfacet
  facet normal 0.62435965988511288 -0.78113700149727006 0
    outer loop
      vertex 11.324999809265137 -1.375 30.920000076293945
      vertex 12.212499618530273 -0.66562497615814209 52.900001525878906
      vertex 11.324999809265137 -1.375 52.900001525878906
    endloop
  endfacet
  facet normal 0.93617189510927146 -0.351542576095009 -0
    outer loop
      vertex 12.212499618530273 -0.66562497615814209 30.920000076293945
      vertex 12.5 0.10000000149011612 30.920000076293945
      vertex 12.5 0.10000000149011612 52.900001525878906
    endloop
  endfacet
  facet normal 0.93617189510927146 -0.351542576095009 0
    outer loop
      vertex 12.212499618530273 -0.66562497615814209 30.920000076293945
      vertex 12.5 0.10000000149011612 52.900001525878906
      vertex 12.212499618530273 -0.66562497615814209 52.900001525878906
    endloop
  endfacet
  facet normal 0.9361719018644481 0.35154255810570417 -0
    outer loop
      vertex 12.5 0.10000000149011612 30.920000076293945
      vertex 12.212499618530273 0.86562502384185791 30.920000076293945
      vertex 12.212499618530273 0.86562502384185791 52.900001525878906
    endloop
  endfacet
  facet normal 0.9361719018644481 0.35154255810570417 0
    outer loop
      vertex 12.5 0.10000000149011612 30.920000076293945
      vertex 12.212499618530273 0.86562502384185791 52.900001525878906
      vertex 12.5 0.10000000149011612 52.900001525878906
    endloop
  endfacet
  facet normal 0.62435965988511288 0.78113700149727006 -0
    outer loop
      vertex 12.212499618530273 0.86562502384185791 30.920000076293945
      vertex 11.324999809265137 1.5750000476837158 30.920000076293945
      vertex 11.324999809265137 1.5750000476837158 52.900001525878906
    endloop
  endfacet
  facet normal 0.62435965988511288 0.78113700149727006 0
    outer loop
      vertex 12.212499618530273 0.86562502384185791 30.920000076293945
      vertex 11.324999809265137 1.5750000476837158 52.900001525878906
      vertex 12.212499618530273 0.86562502384185791 52.900001525878906
    endloop
  endfacet
  facet normal 0.32377904770412658 0.94613272233223655 -0
    outer loop
      vertex 11.324999809265137 1.5750000476837158 30.920000076293945
      vertex 9.8000001907348633 2.0968749523162842 30.920000076293945
      vertex 9.8000001907348633 2.0968749523162842 52.900001525878906
    endloop
  endfacet
  facet normal 0.32377904770412658 0.94613272233223655 0
    outer loop
      vertex 11.324999809265137 1.5750000476837158 30.920000076293945
      vertex 9.8000001907348633 2.0968749523162842 52.900001525878906
      vertex 11.324999809265137 1.5750000476837158 52.900001525878906
    endloop
  endfacet
  facet normal 0.091938489083017993 0.9957646881794574 -0
    outer loop
      vertex 9.8000001907348633 2.0968749523162842 30.920000076293945
      vertex 7.5999999046325684 2.2999999523162842 30.920000076293945
      vertex 7.5999999046325684 2.2999999523162842 52.900001525878906
    endloop
  endfacet
  facet normal 0.091938489083017993 0.9957646881794574 0
    outer loop
      vertex 9.8000001907348633 2.0968749523162842 30.920000076293945
      vertex 7.5999999046325684 2.2999999523162842 52.900001525878906
      vertex 9.8000001907348633 2.0968749523162842 52.900001525878906
    endloop
  endfacet
  facet normal -0.037616535019370949 0.99929224768990199 -0
    outer loop
      vertex 7.5999999046325684 2.2999999523162842 30.920000076293945
      vertex 4.7359375953674316 2.1921875476837158 30.920000076293945
      vertex 4.7359375953674316 2.1921875476837158 52.900001525878906
    endloop
  endfacet
  facet normal -0.037616535019370949 0.9992922476899021 0
    outer loop
      vertex 7.5999999046325684 2.2999999523162842 30.920000076293945
      vertex 4.7359375953674316 2.1921875476837158 52.900001525878906
      vertex 7.5999999046325684 2.2999999523162842 52.900001525878906
    endloop
  endfacet
  facet normal -0.093385210098572272 0.99563005304924657 -0
    outer loop
      vertex 4.7359375953674316 2.1921875476837158 30.920000076293945
      vertex 1.4874999523162842 1.8875000476837158 30.920000076293945
      vertex 1.4874999523162842 1.8875000476837158 52.900001525878906
    endloop
  endfacet
  facet normal -0.093385210098572272 0.99563005304924657 0
    outer loop
      vertex 4.7359375953674316 2.1921875476837158 30.920000076293945
      vertex 1.4874999523162842 1.8875000476837158 52.900001525878906
      vertex 4.7359375953674316 2.1921875476837158 52.900001525878906
    endloop
  endfacet
  facet normal -0.17445323062680612 0.98466546112061348 -0
    outer loop
      vertex 1.4874999523162842 1.8875000476837158 30.920000076293945
      vertex -2.4546875953674316 1.1890624761581421 30.920000076293945
      vertex -2.4546875953674316 1.1890624761581421 52.900001525878906
    endloop
  endfacet
  facet normal -0.17445323062680609 0.98466546112061348 0
    outer loop
      vertex 1.4874999523162842 1.8875000476837158 30.920000076293945
      vertex -2.4546875953674316 1.1890624761581421 52.900001525878906
      vertex 1.4874999523162842 1.8875000476837158 52.900001525878906
    endloop
  endfacet
  facet normal -0.25223519777758796 0.96766595734380412 0
    outer loop
      vertex -2.4546875953674316 1.1890624761581421 30.920000076293945
      vertex -7.4000000953674316 -0.10000000149011612 30.920000076293945
      vertex -7.4000000953674316 -0.10000000149011612 52.900001525878906
    endloop
  endfacet
  facet normal -0.25223519777758796 0.96766595734380412 0
    outer loop
      vertex -2.4546875953674316 1.1890624761581421 30.920000076293945
      vertex -7.4000000953674316 -0.10000000149011612 52.900001525878906
      vertex -2.4546875953674316 1.1890624761581421 52.900001525878906
    endloop
  endfacet
  facet normal -0.20917036718314866 -0.97787921416321488 0
    outer loop
      vertex -7.4000000953674316 -0.10000000149011612 30.920000076293945
      vertex -2.4546875953674316 -1.1578124761581421 30.920000076293945
      vertex -2.4546875953674316 -1.1578124761581421 52.900001525878906
    endloop
  endfacet
  facet normal -0.20917036718314866 -0.97787921416321488 -6.7854001179147228e-18
    outer loop
      vertex -7.4000000953674316 -0.10000000149011612 30.920000076293945
      vertex -2.4546875953674316 -1.1578124761581421 52.900001525878906
      vertex -7.4000000953674316 -0.10000000149011612 52.900001525878906
    endloop
  endfacet
  facet normal -0.14548269362024374 -0.98936079660404885 0
    outer loop
      vertex -2.4546875953674316 -1.1578124761581421 30.920000076293945
      vertex 1.4874999523162842 -1.7374999523162842 30.920000076293945
      vertex 1.4874999523162842 -1.7374999523162842 52.900001525878906
    endloop
  endfacet
  facet normal -0.14548269362024374 -0.98936079660404885 0
    outer loop
      vertex -2.4546875953674316 -1.1578124761581421 30.920000076293945
      vertex 1.4874999523162842 -1.7374999523162842 52.900001525878906
      vertex -2.4546875953674316 -1.1578124761581421 52.900001525878906
    endloop
  endfacet
  facet normal -0.080069193224707916 -0.99678930787621545 0
    outer loop
      vertex 1.4874999523162842 -1.7374999523162842 30.920000076293945
      vertex 4.7359375953674316 -1.9984375238418579 30.920000076293945
      vertex 4.7359375953674316 -1.9984375238418579 52.900001525878906
    endloop
  endfacet
  facet normal -0.080069193224707916 -0.99678930787621545 0
    outer loop
      vertex 1.4874999523162842 -1.7374999523162842 30.920000076293945
      vertex 4.7359375953674316 -1.9984375238418579 52.900001525878906
      vertex 1.4874999523162842 -1.7374999523162842 52.900001525878906
    endloop
  endfacet
  facet normal -0.035438678945783286 -0.99937185273279427 0
    outer loop
      vertex 4.7359375953674316 -1.9984375238418579 30.920000076293945
      vertex 7.5999999046325684 -2.0999999046325684 30.920000076293945
      vertex 7.5999999046325684 -2.0999999046325684 52.900001525878906
    endloop
  endfacet
  facet normal -0.035438678945783286 -0.99937185273279416 -0
    outer loop
      vertex 4.7359375953674316 -1.9984375238418579 30.920000076293945
      vertex 7.5999999046325684 -2.0999999046325684 52.900001525878906
      vertex 4.7359375953674316 -1.9984375238418579 52.900001525878906
    endloop
  endfacet
  facet normal -0 -0 -1
    outer loop
      vertex 1.4874999523162842 -1.7374999523162842 30.920000076293945
      vertex -2.4546875953674316 -1.1578124761581421 30.920000076293945
      vertex -2.4546875953674316 1.1890624761581421 30.920000076293945
    endloop
  endfacet
  facet normal -0 -0 -1
    outer loop
      vertex 4.7359375953674316 -1.9984375238418579 30.920000076293945
      vertex 1.4874999523162842 -1.7374999523162842 30.920000076293945
      vertex 1.4874999523162842 1.8875000476837158 30.920000076293945
    endloop
  endfacet
  facet normal -0 -0 -1
    outer loop
      vertex 7.5999999046325684 -2.0999999046325684 30.920000076293945
      vertex 4.7359375953674316 -1.9984375238418579 30.920000076293945
      vertex 4.7359375953674316 2.1921875476837158 30.920000076293945
    endloop
  endfacet
  facet normal 0 0 -1
    outer loop
      vertex -2.4546875953674316 1.1890624761581421 30.920000076293945
      vertex -2.4546875953674316 -1.1578124761581421 30.920000076293945
      vertex -7.4000000953674316 -0.10000000149011612 30.920000076293945
    endloop
  endfacet
  facet normal -0 -0 -1
    outer loop
      vertex 1.4874999523162842 -1.7374999523162842 30.920000076293945
      vertex -2.4546875953674316 1.1890624761581421 30.920000076293945
      vertex 1.4874999523162842 1.8875000476837158 30.920000076293945
    endloop
  endfacet
  facet normal -0 -0 -1
    outer loop
      vertex 4.7359375953674316 -1.9984375238418579 30.920000076293945
      vertex 1.4874999523162842 1.8875000476837158 30.920000076293945
      vertex 4.7359375953674316 2.1921875476837158 30.920000076293945
    endloop
  endfacet
  facet normal -0 -0 -1
    outer loop
      vertex 4.7359375953674316 2.1921875476837158 30.920000076293945
      vertex 7.5999999046325684 2.2999999523162842 30.920000076293945
      vertex 7.5999999046325684 -2.0999999046325684 30.920000076293945
    endloop
  endfacet
  facet normal -0 0 -1
    outer loop
      vertex 11.324999809265137 -1.375 30.920000076293945
      vertex 9.8000001907348633 -1.8968750238418579 30.920000076293945
      vertex 11.324999809265137 1.5750000476837158 30.920000076293945
    endloop
  endfacet
  facet normal 0 0 -1
    outer loop
      vertex 12.212499618530273 0.86562502384185791 30.920000076293945
      vertex 12.212499618530273 -0.66562497615814209 30.920000076293945
      vertex 11.324999809265137 -1.375 30.920000076293945
    endloop
  endfacet
  facet normal -0 0 -1
    outer loop
      vertex 12.212499618530273 -0.66562497615814209 30.920000076293945
      vertex 12.212499618530273 0.86562502384185791 30.920000076293945
      vertex 12.5 0.10000000149011612 30.920000076293945
    endloop
  endfacet
  facet normal 0 0 -1
    outer loop
      vertex 9.8000001907348633 2.0968749523162842 30.920000076293945
      vertex 9.8000001907348633 -1.8968750238418579 30.920000076293945
      vertex 7.5999999046325684 2.2999999523162842 30.920000076293945
    endloop
  endfacet
  facet normal -0 0 -1
    outer loop
      vertex 9.8000001907348633 -1.8968750238418579 30.920000076293945
      vertex 9.8000001907348633 2.0968749523162842 30.920000076293945
      vertex 11.324999809265137 1.5750000476837158 30.920000076293945
    endloop
  endfacet
  facet normal -0 0 -1
    outer loop
      vertex 11.324999809265137 -1.375 30.920000076293945
      vertex 11.324999809265137 1.5750000476837158 30.920000076293945
      vertex 12.212499618530273 0.86562502384185791 30.920000076293945
    endloop
  endfacet
  facet normal -0 0 -1
    outer loop
      vertex 7.5999999046325684 -2.0999999046325684 30.920000076293945
      vertex 7.5999999046325684 2.2999999523162842 30.920000076293945
      vertex 9.8000001907348633 -1.8968750238418579 30.920000076293945
    endloop
  endfacet
  facet normal 0 -0 1
    outer loop
      vertex 1.4874999523162842 -1.7374999523162842 52.900001525878906
      vertex -2.4546875953674316 1.1890624761581421 52.900001525878906
      vertex -2.4546875953674316 -1.1578124761581421 52.900001525878906
    endloop
  endfacet
  facet normal -0 -0 1
    outer loop
      vertex 4.7359375953674316 -1.9984375238418579 52.900001525878906
      vertex 1.4874999523162842 1.8875000476837158 52.900001525878906
      vertex 1.4874999523162842 -1.7374999523162842 52.900001525878906
    endloop
  endfacet
  facet normal -0 -0 1
    outer loop
      vertex 7.5999999046325684 -2.0999999046325684 52.900001525878906
      vertex 4.7359375953674316 2.1921875476837158 52.900001525878906
      vertex 4.7359375953674316 -1.9984375238418579 52.900001525878906
    endloop
  endfacet
  facet normal 0 -0 1
    outer loop
      vertex -2.4546875953674316 1.1890624761581421 52.900001525878906
      vertex -7.4000000953674316 -0.10000000149011612 52.900001525878906
      vertex -2.4546875953674316 -1.1578124761581421 52.900001525878906
    endloop
  endfacet
  facet normal 0 0 1
    outer loop
      vertex 1.4874999523162842 -1.7374999523162842 52.900001525878906
      vertex 1.4874999523162842 1.8875000476837158 52.900001525878906
      vertex -2.4546875953674316 1.1890624761581421 52.900001525878906
    endloop
  endfacet
  facet normal -0 -0 1
    outer loop
      vertex 4.7359375953674316 -1.9984375238418579 52.900001525878906
      vertex 4.7359375953674316 2.1921875476837158 52.900001525878906
      vertex 1.4874999523162842 1.8875000476837158 52.900001525878906
    endloop
  endfacet
  facet normal 0 -0 1
    outer loop
      vertex 4.7359375953674316 2.1921875476837158 52.900001525878906
      vertex 7.5999999046325684 -2.0999999046325684 52.900001525878906
      vertex 7.5999999046325684 2.2999999523162842 52.900001525878906
    endloop
  endfacet
  facet normal -0 0 1
    outer loop
      vertex 11.324999809265137 -1.375 52.900001525878906
      vertex 11.324999809265137 1.5750000476837158 52.900001525878906
      vertex 9.8000001907348633 -1.8968750238418579 52.900001525878906
    endloop
  endfacet
  facet normal 0 0 1
    outer loop
      vertex 12.212499618530273 0.86562502384185791 52.900001525878906
      vertex 11.324999809265137 -1.375 52.900001525878906
      vertex 12.212499618530273 -0.66562497615814209 52.900001525878906
    endloop
  endfacet
  facet normal -0 0 1
    outer loop
      vertex 12.212499618530273 -0.66562497615814209 52.900001525878906
      vertex 12.5 0.10000000149011612 52.900001525878906
      vertex 12.212499618530273 0.86562502384185791 52.900001525878906
    endloop
  endfacet
  facet normal -0 0 1
    outer loop
      vertex 9.8000001907348633 2.0968749523162842 52.900001525878906
      vertex 7.5999999046325684 2.2999999523162842 52.900001525878906
      vertex 9.8000001907348633 -1.8968750238418579 52.900001525878906
    endloop
  endfacet
  facet normal -0 0 1
    outer loop
      vertex 9.8000001907348633 -1.8968750238418579 52.900001525878906
      vertex 11.324999809265137 1.5750000476837158 52.900001525878906
      vertex 9.8000001907348633 2.0968749523162842 52.900001525878906
    endloop
  endfacet
  facet normal -0 0 1
    outer loop
      vertex 11.324999809265137 -1.375 52.900001525878906
      vertex 12.212499618530273 0.86562502384185791 52.900001525878906
      vertex 11.324999809265137 1.5750000476837158 52.900001525878906
    endloop
  endfacet
  facet normal -0 0 1
    outer loop
      vertex 7.5999999046325684 -2.0999999046325684 52.900001525878906
      vertex 9.8000001907348633 -1.8968750238418579 52.900001525878906
      vertex 7.5999999046325684 2.2999999523162842 52.900001525878906
    endloop
  endfacet
endsolid OBJECT
